# xmcd
#
# Track frame offsets:
#   182
#   10985
#   22717
#   34012
#   44570
#   55790
#   67342
#   78075
#   88965
#   102727
#   114367
#   124817
#   135905
#   147292
#   157812
#   170187
#   180580
#   192102
#   202100
#   212650
#   223725
#   236395
#   247710
#   258252
#
# Disc length: 3599 seconds
#
# Revision: 3
# Processed by: cddbd v1.5.1PL2 Copyright (c) Steve Scherf et al.
# Submitted via: Media_Universe 3.0
#
DISCID=4e0e0d18
DTITLE=Patsy Cline - Unforgettable Patsy Cline
DYEAR=1900
DGENRE=Country
TTITLE0=Gotta Lot Of Rhythm In My Soul
TTITLE1=In Care Of The Blues
TTITLE2=Hungry For Love
TTITLE3=Lovesick Blues
TTITLE4=A Stranger in My Arms
TTITLE5=Crazy Dreams
TTITLE6=Honky Tonk Merry Go Round
TTITLE7=I Cried All The Way To The Altar
TTITLE8=A Church, A Courtroom, Then Goodbye
TTITLE9=I've Loved And Lost Again
TTITLE10=Three Cigarettes In An Ashtray
TTITLE11=I Can't Forget You
TTITLE12=Just Out Of Reach
TTITLE13=I love You Honey
TTITLE14=A Poor Man's Roses
TTITLE15=Pick Me Up (On Your Way Down)
TTITLE16=The Heart You Break
TTITLE17=Turn The Cards Slowly
TTITLE18=That Wonderful Someone
TTITLE19=Don't Ever Leave Me Again
TTITLE20=Just A Closer Walk With Thee
TTITLE21=Dear God
TTITLE22=He'll Do For You
TTITLE23=Never No More
EXTD=
EXTT0=
EXTT1=
EXTT2=
EXTT3=
EXTT4=
EXTT5=
EXTT6=
EXTT7=
EXTT8=
EXTT9=
EXTT10=
EXTT11=
EXTT12=
EXTT13=
EXTT14=
EXTT15=
EXTT16=
EXTT17=
EXTT18=
EXTT19=
EXTT20=
EXTT21=
EXTT22=
EXTT23=
PLAYORDER=
